<svg xmlns="http://www.w3.org/2000/svg" width="600" height="345.661" viewBox="0 0 600 345.661"><path d="M130.084 0l48.067 107.148 3.362 7.513 43.538 97.06L320.02 0H130.084zm-14.787 9.813L72.34 107.148h85.91L115.298 9.813zm75.205 171.236l-7.548-17.978-17.086-38.666H64.725L47.673 163.07l-7.548 17.978-24.462 55.341h199.61l-.651-1.407-24.12-53.934zm211.584-17.978l-19.796-44.876-4.22-9.538L334.43 9.813 266.806 163.07l-7.548 17.978-23.81 53.866-.653 1.475h199.61l-24.77-55.34-7.549-17.979zm.138-44.876L448.576 221.5l43.71-103.305.377-.892h-90.85l.41.892zM349.216 0l45.082 100.492H499.8L542.308 0H349.216z" fill="#e43138"/><path d="M235.447 234.915l-.652 1.475h1.304l-.652-1.475zM214.622 234.983l-.618 1.407h1.27l-.652-1.407z"/><path d="M55.585 300.027c6.862-5.833 11.837-13.552 11.837-20.93 0-8.752-6.863-14.927-18.014-14.927C24.532 264.17 0 292.134 0 320.442c0 16.984 10.122 25.22 25.047 25.22 13.21 0 23.847-6.692 33.454-23.85l-4.975-2.915c-7.892 11.838-12.868 15.785-20.244 15.785-7.205 0-10.98-4.805-10.98-14.07 0-2.743.344-4.975 1.03-8.406 16.641-2.915 24.875-6.004 32.253-12.179zm-9.264-30.194c4.116 0 5.317 2.744 5.317 6.69 0 14.24-11.665 26.761-27.106 30.195 6.177-23.849 13.553-36.885 21.789-36.885zm80.624-1.887c-1.715 0-3.43-.345-6.347-1.715-2.917-1.374-6.518-2.06-9.95-2.06-13.896 0-22.989 7.893-22.989 21.617 0 9.264 2.059 14.41 13.725 27.618 6.862 7.723 9.606 12.695 9.606 17.845 0 5.488-3.43 9.264-10.292 9.264-8.75 0-14.067-7.723-15.955-22.817l-4.633-.516-3.774 28.48h4.632c1.03-2.403 2.746-3.432 4.976-3.432 1.2 0 2.916.513 5.146 1.37 3.774 1.545 7.378 2.061 10.98 2.061 14.068 0 25.39-9.093 25.39-21.96 0-8.235-3.431-15.783-13.724-27.791-6.69-7.72-9.778-13.04-9.778-16.984 0-5.492 3.601-9.093 9.091-9.093 7.892 0 12.352 6.345 15.098 20.585l4.632.345 3.945-26.422h-4.976c-1.543 2.918-2.23 3.605-4.803 3.605zm71.708-3.776c-11.494 0-22.132 5.663-30.88 14.582-10.638 10.637-18.014 25.219-18.014 41.003 0 16.813 10.636 25.906 26.248 25.906 5.662 0 10.294-1.032 14.24-3.089 7.719-3.947 13.209-11.496 19.729-20.415l-4.805-3.089c-8.234 11.496-13.553 15.614-20.929 15.614-7.548 0-12.524-5.321-12.524-15.269 0-11.495 3.431-24.02 9.092-34.483 4.804-8.752 9.436-15.097 15.955-15.097 2.059 0 4.118 1.2 4.118 2.915 0 3.776-3.602 4.804-3.602 9.95s4.116 9.094 9.95 9.094c6.347 0 10.635-4.976 10.635-12.183 0-9.09-8.92-15.439-19.213-15.439zm81.139 0h-.685c-11.667 0-22.646 4.634-31.396 13.211-10.293 10.122-17.155 25.732-17.155 42.89 0 16.81 12.009 25.39 28.134 25.39 11.496 0 21.618-4.463 30.023-12.87 10.465-10.463 18.014-26.589 18.014-42.715 0-15.784-10.293-25.906-26.935-25.906zm-8.234 68.11c-3.603 5.832-7.72 8.406-12.18 8.406-5.147 0-8.407-3.431-8.407-10.98 0-17.5 6.69-43.747 16.984-55.243 3.26-3.602 6.69-5.317 10.294-5.317 4.976 0 8.063 3.947 8.063 10.463 0 14.927-6.347 38.947-14.754 52.67zm167.781-8.923c-3.946 6.35-7.72 9.95-9.95 9.95-1.545 0-2.745-1.028-2.745-3.088 0-3.086.516-4.46 3.602-13.208l7.72-21.96c2.573-7.377 3.947-14.239 3.947-18.698 0-7.036-4.976-12.183-13.211-12.183-12.35 0-20.073 6.862-33.97 29.508 3.431-8.919 4.462-13.21 4.462-18.012 0-7.207-4.289-11.496-11.494-11.496-6.864 0-14.069 4.46-19.559 9.951-4.632 4.63-9.606 11.667-17.841 24.362h-.171l10.807-34.142c-10.807 2.573-14.925 3.09-34.31 4.634v4.63h3.087c4.46 0 6.52 1.545 6.52 4.289 0 2.573-1.374 9.093-6.177 25.735l-11.323 39.8h20.758c9.093-32.422 15.441-47.007 25.22-58.67 3.774-4.463 8.578-8.065 11.152-8.065 1.715 0 3.087 1.029 3.087 3.773 0 2.918-2.23 9.951-7.72 27.45l-11.152 35.513h20.587c9.951-32.94 11.15-36.028 17.328-46.834 7.205-12.869 14.067-19.902 19.216-19.902 2.058 0 3.944 1.716 3.944 3.602 0 1.029-.513 2.918-1.2 5.147l-7.548 22.304c-3.776 10.98-6.35 20.93-6.35 25.903 0 7.893 4.118 11.324 11.496 11.324 10.638 0 18.7-5.833 27.622-22.475l-3.776-2.228c-.684.858-1.37 1.886-2.058 3.086zm80.768-117.62l-2.289 1.585c3.632 5.847 4.49 9.006 3.113 12.323-1.407 3.391-4.728 4.634-9.2 2.778-5.167-2.144-10.156-6.024-13.805-10.52-3.035-3.79-5.022-7.06-3.806-9.988.382-.925 1.303-1.629 2.074-1.307 1.699.703 1.488 2.516 3.803 3.478 2.312.958 4.858-.158 5.944-2.778 1.186-2.854-.252-5.712-3.492-7.056-4.087-1.699-8.604 1.13-10.523 5.756-2.145 5.167-1.585 11.007.79 16.602 2.801 6.768 7.978 12.805 15.074 15.75 7.556 3.137 13.627.05 16.542-6.965 1.055-2.546 1.457-4.818 1.266-6.98-.332-4.204-2.7-8.08-5.491-12.677zm16.598-43.911c3.404 5.302 4.416 7.441 4 8.443-.254.617-1.243 1.022-1.779.798-.234-.098-.311-.128-.83-.617l-12.146-10.376c-4.141-3.525-6.704-5.405-8.172-6.015-3.625-1.502-6.647-.318-8.215 3.461-2.178 5.244-.724 10.008 6.985 22.157l-28.626-21.644c-1.31 6.416-2.326 10.606-4.376 17.078l2.08.864.704-1.695c.928-2.238 2.114-2.922 3.89-2.185.694.288 1.803 1.11 3.304 2.278L532 204.086l3.873-9.335c-11.86-9.532-15.034-12.564-19.02-18.652-3.482-5.332-4.718-9.1-3.854-11.184.385-.925 1.025-1.38 2.258-.868.463.191 1.096.633 2.088 1.498l3.913 3.43c9.81 8.595 12.243 10.598 15.4 11.905 3.082 1.283 5.799-.03 7.049-3.039 1.953-4.704.69-8.843-5.14-17.231l-1.863 1.216zm9.472-22.822l1.095 1.72c2.068 3.297 3.137 5.731 2.657 6.889-.258.617-.79 1.029-1.718.643-.69-.288-2.493-1.395-3.642-2.325l-22.844-17.71c-.804 4.548-2.309 10.342-4.342 16.55l2.084.865.449-1.079c.961-2.313 2.244-3.23 3.712-2.62.613.255 1.551.826 3.21 2.057l13.894 10.74c2.456 1.924 4.299 3.142 5.381 3.59 3.317 1.378 5.723-.066 7.036-3.23 1.92-4.626 1.032-8.791-5.186-17.338l-1.786 1.248zm-39.603-8.485c3.005 1.25 6.218.05 7.435-2.88 1.216-2.93-.064-6.173-2.915-7.356-2.855-1.184-6.239.213-7.455 3.143-1.089 2.623.312 6.007 2.935 7.093zm64.567-50.13c.255.465.593.966 1.006 1.5 2.114 2.957 3.032 5.328 2.616 6.331-.288.692-.975 1.04-1.903.655-1.387-.576-1.906-1.062-5.263-4.084l-8.43-7.569c-2.838-2.533-5.666-4.429-7.673-5.262-3.163-1.311-6.403-.038-7.937 3.664-2.305 5.555-.664 10.306 6.925 20.777-3.37-3.205-5.106-4.47-7.267-5.365-3.24-1.346-5.967-.217-7.31 3.023-1.28 3.082-.62 7.155.823 10.648 1.217 2.945 3.452 6.494 7.62 12.566l-.03.075-13.329-11.228c-.861 5.338-1.4 7.288-4.322 16.29l2.084.865.576-1.389c.831-2.005 1.91-2.643 3.143-2.13 1.16.48 3.83 2.313 10.417 7.576l15.777 12.518 3.873-9.331c-12.876-10.139-18.25-15.712-21.667-22.284-1.3-2.53-2.024-5.365-1.545-6.52.322-.771 1.039-1.195 2.275-.682 1.307.542 4.05 2.86 10.896 8.592l13.884 11.64 3.84-9.254c-12.95-10.621-14.116-11.737-17.821-16.53-4.436-5.639-6.32-10.038-5.361-12.352.385-.926 1.511-1.452 2.359-1.1.459.19 1.213.775 2.084 1.499l8.62 7.555c4.232 3.746 8.226 6.76 10.457 7.686 3.552 1.475 5.864.262 7.238-3.054 1.986-4.782.867-9.493-4.946-16.606l-1.709 1.28zm8.836-22.816l1.095 1.72c2.07 3.3 3.136 5.732 2.657 6.89-.254.616-.787 1.028-1.715.643-.69-.287-2.493-1.396-3.642-2.326l-22.847-17.71c-.804 4.548-2.305 10.343-4.34 16.551l2.085.865.446-1.08c.961-2.313 2.244-3.227 3.712-2.618.613.255 1.554.826 3.213 2.056l13.891 10.74c2.456 1.923 4.302 3.141 5.384 3.59 3.317 1.377 5.72-.065 7.033-3.228 1.923-4.629 1.032-8.794-5.186-17.34l-1.786 1.247zm-39.6-8.483c3.002 1.248 6.215.048 7.432-2.882 1.216-2.93-.06-6.173-2.912-7.356-2.855-1.184-6.242.213-7.455 3.143-1.089 2.624.308 6.008 2.935 7.095zm53.896-22.467l-2.241 1.694c3.85 5.756 4.694 8.73 3.32 12.045-1.347 3.24-4.211 4.039-8.376 2.31-1.23-.511-2.171-1.082-3.588-2.03 1.799-8.025 1.946-12.303.549-16.773-1.347-4.173-3.887-7.85-7.204-9.227-3.933-1.632-7.987.301-10.068 5.314-4.644 11.18 3.347 27.428 16.073 32.71 7.635 3.17 13.227.155 16.012-6.553 2.466-5.939 1.44-11.968-4.477-19.49zm-13.127 12.454c-9.566-7.224-14.049-12.977-12.51-16.677.767-1.851 2.22-1.878 3.996-1.141 6.4 2.657 9.85 10.236 8.514 17.818z" fill="#19171b"/></svg>